<?xml version="1.0" standalone="no"?>
<!DOCTYPE svg PUBLIC "-//W3C//DTD SVG 20010904//EN"
 "http://www.w3.org/TR/2001/REC-SVG-20010904/DTD/svg10.dtd">
<svg version="1.0" xmlns="http://www.w3.org/2000/svg"
 width="388.000000pt" height="245.000000pt" viewBox="0 0 388.000000 245.000000"
 preserveAspectRatio="xMidYMid meet">

<g transform="translate(0.000000,245.000000) scale(0.100000,-0.100000)"
fill="#5e48ff" stroke="none">
<path d="M1237 2308 c-16 -12 -17 -37 -15 -272 3 -289 2 -285 71 -272 30 6 46
19 85 68 26 34 78 94 115 132 l68 71 25 -30 c14 -16 32 -43 40 -58 l15 -28
-99 -97 c-54 -53 -120 -130 -147 -169 l-48 -73 -158 0 c-146 0 -161 -2 -179
-20 -24 -24 -27 -77 -6 -106 13 -17 30 -19 189 -22 l175 -3 42 -65 c37 -58
110 -135 198 -211 l33 -28 -26 -48 c-15 -26 -38 -55 -52 -64 -23 -15 -25 -15
-65 23 -22 21 -65 74 -96 117 -62 89 -104 117 -150 101 l-27 -9 -3 -245 c-1
-147 1 -247 7 -253 12 -12 1601 -14 1619 -3 9 5 12 75 12 250 0 275 1 273 -72
263 -53 -7 -84 -30 -130 -98 -21 -30 -61 -78 -90 -106 -51 -51 -54 -52 -76
-37 -12 8 -33 36 -46 62 l-24 47 97 95 c53 52 112 121 131 152 l34 57 184 3
c168 3 185 5 198 22 21 29 18 82 -6 106 -18 18 -33 20 -184 20 l-164 0 -48 73
c-26 39 -92 116 -146 169 l-100 96 26 45 c50 85 53 86 128 11 37 -36 86 -91
109 -122 23 -31 51 -65 62 -74 22 -21 87 -24 105 -6 17 17 17 519 0 536 -18
18 -1587 17 -1611 0z m711 -200 l-3 -62 -50 -11 c-27 -6 -77 -22 -109 -36 -43
-17 -60 -21 -63 -12 -3 7 -15 28 -29 48 -13 20 -24 38 -24 41 0 17 207 92 258
93 22 1 23 -2 20 -61z m305 32 c29 -10 73 -27 100 -39 l48 -21 -37 -54 -36
-55 -47 23 c-45 23 -89 38 -143 50 -27 6 -28 9 -28 67 l0 61 45 -7 c25 -3 69
-15 98 -25z m-119 -235 c108 -28 193 -81 295 -184 83 -85 171 -190 171 -206 0
-3 -52 -62 -116 -130 -86 -93 -134 -136 -185 -166 -182 -106 -342 -113 -510
-22 -94 51 -140 90 -248 212 l-91 103 29 41 c16 23 39 54 52 68 13 14 42 45
64 69 102 115 211 185 331 214 78 19 137 19 208 1z m-236 -891 l52 -7 0 -65 0
-65 -42 7 c-54 8 -226 65 -233 76 -3 5 9 31 27 58 l33 48 56 -22 c31 -13 79
-26 107 -30z m459 6 l33 -50 -39 -20 c-40 -20 -202 -70 -227 -70 -11 0 -14 16
-14 64 l0 64 48 7 c26 4 72 17 102 30 30 13 57 24 60 24 3 0 20 -22 37 -49z"/>
<path d="M1935 1788 c-79 -29 -158 -111 -172 -180 -5 -28 -7 -28 -80 -28 -89
0 -113 -10 -113 -49 0 -46 27 -61 108 -61 l72 0 26 -54 c35 -75 82 -120 151
-146 71 -27 158 -23 220 8 51 26 107 91 129 149 l17 43 76 0 c88 0 114 12 114
55 0 42 -26 55 -112 55 l-76 0 -33 70 c-34 73 -79 114 -151 138 -42 15 -135
14 -176 0z m145 -151 c34 -17 70 -74 70 -111 0 -63 -63 -126 -125 -126 -39 0
-99 35 -113 65 -38 83 24 185 113 185 17 0 41 -6 55 -13z"/>
<path d="M3482 1585 c-37 -16 -54 -45 -54 -93 0 -66 75 -102 141 -67 31 16 41
33 41 71 0 21 -25 84 -33 84 -1 0 -16 4 -33 9 -21 6 -40 4 -62 -4z"/>
<path d="M492 1583 c-30 -12 -51 -87 -36 -128 9 -21 56 -45 92 -45 73 0 111
102 57 155 -23 24 -77 33 -113 18z"/>
<path d="M1760 317 l0 -197 40 0 40 0 0 92 0 92 58 -54 c31 -31 78 -75 105
-100 l47 -44 0 197 0 197 -40 0 -40 0 0 -97 0 -98 -105 105 -105 105 0 -198z"/>
<path d="M385 463 c9 -21 44 -107 78 -191 l61 -153 34 3 35 3 78 185 c44 102
79 186 79 188 0 2 -21 2 -47 0 l-47 -3 -37 -92 c-20 -51 -40 -106 -44 -123 -4
-17 -9 -29 -12 -26 -3 2 -26 58 -52 123 l-48 118 -47 3 -47 3 16 -38z"/>
<path d="M780 310 l0 -190 40 0 40 0 0 190 0 190 -40 0 -40 0 0 -190z"/>
<path d="M970 462 c-35 -35 -40 -45 -40 -86 0 -32 6 -52 19 -65 18 -18 107
-51 137 -51 6 0 17 -7 24 -15 34 -41 -70 -65 -110 -25 -26 26 -32 25 -58 -9
l-22 -30 30 -21 c69 -49 168 -49 223 -1 24 23 30 36 31 72 1 27 -6 55 -16 72
-17 25 -30 30 -133 53 -30 7 -40 14 -40 29 0 32 47 43 92 21 l36 -17 30 29 29
29 -33 24 c-24 17 -51 24 -96 27 -62 4 -64 4 -103 -36z"/>
<path d="M1260 310 l0 -190 45 0 45 0 0 190 0 190 -45 0 -45 0 0 -190z"/>
<path d="M1485 481 c-48 -22 -69 -44 -90 -94 -33 -79 -7 -183 56 -228 27 -19
47 -24 95 -24 107 0 174 69 175 180 1 70 -36 130 -101 163 -53 27 -82 27 -135
3z m118 -101 c31 -25 41 -62 27 -106 -13 -40 -35 -54 -83 -54 -85 0 -118 132
-43 168 34 17 71 14 99 -8z"/>
<path d="M2220 484 c-72 -31 -110 -92 -110 -176 0 -68 32 -125 85 -155 66 -38
163 -26 208 25 18 19 17 20 -12 42 -29 20 -33 20 -53 6 -91 -64 -197 76 -115
152 32 29 61 35 99 19 30 -12 38 -12 61 0 46 23 28 57 -46 88 -45 19 -72 19
-117 -1z"/>
<path d="M2450 310 l0 -190 40 0 40 0 0 60 c0 33 3 60 8 59 4 0 26 -27 50 -60
l44 -59 88 0 88 0 12 35 12 35 69 0 69 0 17 -35 c15 -32 20 -35 60 -35 l43 0
-20 53 c-11 28 -44 113 -74 187 l-54 135 -38 3 -39 2 -70 -180 c-38 -99 -72
-180 -73 -180 -7 0 -43 45 -58 73 -14 27 -14 30 14 62 42 47 48 84 23 139 -29
67 -66 86 -168 86 l-83 0 0 -190z m161 90 c23 -13 25 -55 3 -64 -9 -3 -31 -6
-50 -6 -33 0 -34 1 -34 40 0 38 2 40 31 40 17 0 39 -5 50 -10z m329 -127 c0
-2 -16 -3 -35 -3 -40 0 -43 11 -19 68 l16 37 19 -50 c10 -27 19 -51 19 -52z"/>
<path d="M3110 310 l0 -190 40 0 40 0 0 70 0 70 80 0 80 0 0 45 0 45 -80 0
-80 0 0 30 0 30 95 0 95 0 0 45 0 45 -135 0 -135 0 0 -190z"/>
<path d="M3410 455 l0 -45 50 0 50 0 0 -145 0 -145 45 0 45 0 0 144 0 145 53
3 52 3 3 43 3 42 -150 0 -151 0 0 -45z"/>
</g>
</svg>
